<?xml version="1.0" encoding="UTF-8"?>
<svg version="1.1" xmlns="http://www.w3.org/2000/svg" width="666" height="375">
<path d="M0 0 C0.7810611 0.01405884 1.56212219 0.02811768 2.36685181 0.04260254 C16.40328125 0.47541718 28.56473857 4.88621257 38.91015625 14.75 C42.30113887 18.76068992 44.57519626 23.27598817 46.8125 28 C47.36744141 29.06154297 47.36744141 29.06154297 47.93359375 30.14453125 C51.99997055 38.72910449 50.86423854 52.24960685 47.8125 61 C45.65799243 65.9730757 43.36374286 70.86161832 39.8125 75 C39.1525 75 38.4925 75 37.8125 75 C37.8125 75.66 37.8125 76.32 37.8125 77 C37.1525 77 36.4925 77 35.8125 77 C35.8125 77.66 35.8125 78.32 35.8125 79 C26.40670786 86.29608175 16.29997071 90.15396906 4.41796875 90.09765625 C3.21591797 90.09443359 2.01386719 90.09121094 0.77539062 90.08789062 C-0.47048828 90.07951172 -1.71636719 90.07113281 -3 90.0625 C-4.26521484 90.05798828 -5.53042969 90.05347656 -6.83398438 90.04882812 C-9.9518711 90.03706251 -13.06966133 90.02062272 -16.1875 90 C-16.04610596 90.73710205 -15.90471191 91.4742041 -15.7590332 92.23364258 C-14.0593014 102.55076759 -12.37692058 114.05082318 -18.7890625 123.0234375 C-22.06449529 127.08989638 -25.69514691 130.74394531 -29.5 134.3125 C-30.13298004 134.90688873 -30.76596008 135.50127747 -31.41812134 136.11367798 C-42.13112619 146 -42.13112619 146 -46.1875 146 C-46.1875 117.29 -46.1875 88.58 -46.1875 59 C-19.125 58.75 -19.125 58.75 -10.61694336 58.70214844 C-8.37872266 58.67276987 -6.14052032 58.6419425 -3.90234375 58.609375 C-2.75060669 58.60824707 -1.59886963 58.60711914 -0.41223145 58.60595703 C6.18395005 58.48879319 10.49568903 58.03771274 15.8125 54 C18.78045815 49.54806278 18.44708039 45.22190854 17.8125 40 C15.76676614 36.54341521 14.14469615 35.2214641 10.8125 33 C8.34931299 32.67880864 8.34931299 32.67880864 5.5625 32.69702148 C4.49128906 32.68037949 3.42007813 32.66373749 2.31640625 32.64659119 C1.16011719 32.63817703 0.00382812 32.62976288 -1.1875 32.62109375 C-2.37472656 32.60409927 -3.56195313 32.5871048 -4.78515625 32.56959534 C-8.58588316 32.51637554 -12.38659897 32.4761329 -16.1875 32.4375 C-19.9883445 32.39358873 -23.7891037 32.3468826 -27.58984375 32.29469299 C-29.95696635 32.26271652 -32.32416414 32.23583253 -34.69140625 32.21446228 C-36.29822266 32.19422752 -36.29822266 32.19422752 -37.9375 32.17358398 C-38.88109375 32.16407211 -39.8246875 32.15456024 -40.796875 32.14476013 C-43.1875 32 -43.1875 32 -46.1875 31 C-37.64593967 11.81231227 -20.67523781 -0.55389612 0 0 Z " fill="#149DFC" transform="translate(325.1875,121)"/>
<path d="M0 0 C8.91 0 17.82 0 27 0 C27.06890359 4.07551947 27.12862357 8.14955368 27.16479492 12.2253418 C27.17987397 13.61147919 27.2003405 14.99756894 27.22631836 16.38354492 C27.26273716 18.37658146 27.27813018 20.36996723 27.29296875 22.36328125 C27.3086792 23.56251221 27.32438965 24.76174316 27.34057617 25.99731445 C27 29 27 29 25.6340332 30.81713867 C22.83565029 32.84286185 19.99057969 34.57546585 16.8125 35.9375 C14.81914712 36.87218226 14.81914712 36.87218226 14.0625 39.0625 C13.5365625 40.0215625 13.5365625 40.0215625 13 41 C10.375 41.75 10.375 41.75 8 42 C7.814375 42.9590625 7.814375 42.9590625 7.625 43.9375 C7.41875 44.618125 7.2125 45.29875 7 46 C5 47 5 47 0 46 C0 30.82 0 15.64 0 0 Z " fill="#0B86FC" transform="translate(281,210)"/>
<path d="M0 0 C4.42117715 1.35091524 6.443343 3.1650145 9 7 C10.77369084 12.68520773 10.96503473 18.10439606 8.25 23.4375 C5.43096417 26.64806858 3.59575097 27.85694982 -0.68292236 28.24050903 C-2.21514435 28.2338472 -2.21514435 28.2338472 -3.77832031 28.22705078 C-4.95539551 28.22680908 -6.1324707 28.22656738 -7.34521484 28.22631836 C-8.5770752 28.21608643 -9.80893555 28.20585449 -11.078125 28.1953125 C-12.21427246 28.19329834 -13.35041992 28.19128418 -14.52099609 28.18920898 C-18.76403848 28.178747 -23.0070233 28.15082443 -27.25 28.125 C-36.7375 28.08375 -46.225 28.0425 -56 28 C-55.67 55.72 -55.34 83.44 -55 112 C-27.88389745 90.15894816 -27.88389745 90.15894816 -26.875 69.875 C-27.431875 63.501875 -27.431875 63.501875 -28 57 C-18.76 57 -9.52 57 0 57 C0 57.33 0 57.66 0 58 C-8.91 58 -17.82 58 -27 58 C-26.443125 62.228125 -25.88625 66.45625 -25.3125 70.8125 C-24.7664713 79.621763 -25.60103434 86.05677071 -31.1912384 92.99702454 C-34.0823688 96.26823717 -37.12896695 99.3266786 -40.3125 102.3125 C-40.94548004 102.90688873 -41.57846008 103.50127747 -42.23062134 104.11367798 C-52.94362619 114 -52.94362619 114 -57 114 C-57 85.29 -57 56.58 -57 27 C-29.9375 26.75 -29.9375 26.75 -21.42944336 26.70214844 C-19.19122266 26.67276987 -16.95302032 26.6419425 -14.71484375 26.609375 C-13.56310669 26.60824707 -12.41136963 26.60711914 -11.22473145 26.60595703 C-4.62854995 26.48879319 -0.31681097 26.03771274 5 22 C7.96763165 17.54855253 7.63547103 13.22158122 7 8 C5.36318104 4.97136086 5.36318104 4.97136086 3 3 C2.4225 2.401875 1.845 1.80375 1.25 1.1875 C0.8375 0.795625 0.425 0.40375 0 0 Z " fill="#B0DDF3" transform="translate(336,153)"/>
<path d="M0 0 C19.14 0 38.28 0 58 0 C57.67 0.66 57.34 1.32 57 2 C38.52 2 20.04 2 1 2 C1 26.09 1 50.18 1 75 C2.98 75 4.96 75 7 75 C7.226875 74.38125 7.45375 73.7625 7.6875 73.125 C9.40446275 70.34515555 10.996823 70.18730254 14 69 C16.64587234 66.60414714 16.64587234 66.60414714 19 64 C20 63 21 62 22 61 C22.66 61.33 23.32 61.66 24 62 C20.74592504 65.27871843 17.48863647 68.55419645 14.22827148 71.82666016 C13.11864792 72.94132524 12.0099218 74.05688443 10.90209961 75.17333984 C9.31336495 76.77414804 7.72147383 78.37175612 6.12890625 79.96875 C5.63097061 80.47184692 5.13303497 80.97494385 4.62001038 81.49328613 C3.43217036 82.68132102 2.21862122 83.84356015 1 85 C0.67 85 0.34 85 0 85 C0 56.95 0 28.9 0 0 Z " fill="#38A1DE" transform="translate(280,181)"/>
<path d="M0 0 C0.33 0 0.66 0 1 0 C1 15.18 1 30.36 1 46 C2.98 46 4.96 46 7 46 C7.226875 45.38125 7.45375 44.7625 7.6875 44.125 C9.40446275 41.34515555 10.996823 41.18730254 14 40 C16.64587234 37.60414714 16.64587234 37.60414714 19 35 C20 34 21 33 22 32 C22.66 32.33 23.32 32.66 24 33 C20.74592504 36.27871843 17.48863647 39.55419645 14.22827148 42.82666016 C13.11864792 43.94132524 12.0099218 45.05688443 10.90209961 46.17333984 C9.31336495 47.77414804 7.72147383 49.37175612 6.12890625 50.96875 C5.63097061 51.47184692 5.13303497 51.97494385 4.62001038 52.49328613 C3.43217036 53.68132102 2.21862122 54.84356015 1 56 C0.67 56 0.34 56 0 56 C0 37.52 0 19.04 0 0 Z " fill="#298ED6" transform="translate(280,210)"/>
<path d="M0 0 C0.33 0.99 0.66 1.98 1 3 C-0.9375 5.6875 -0.9375 5.6875 -3 8 C-0.14393188 8.81217324 2.40055169 9.12806224 5.36621094 9.1418457 C6.22100037 9.14888016 7.07578979 9.15591461 7.95648193 9.16316223 C9.331539 9.16940865 9.331539 9.16940865 10.734375 9.17578125 C12.69011488 9.19898407 14.64584407 9.22310159 16.6015625 9.24804688 C19.67357492 9.28310096 22.74519505 9.31247897 25.81738281 9.32592773 C28.79019299 9.3414759 31.76186782 9.38173077 34.734375 9.42578125 C36.09728668 9.42291862 36.09728668 9.42291862 37.48773193 9.41999817 C43.38504915 9.53211772 48.11998739 10.52697461 53 14 C55.05499927 17.33937382 55.22130713 20.12712525 55 24 C54.62875 23.1646875 54.62875 23.1646875 54.25 22.3125 C51.91450811 17.99184001 49.56541396 14.91410258 45 13 C38.49556638 11.67277689 31.67035546 11.79872781 25.05859375 11.68359375 C24.05031021 11.66281265 23.04202667 11.64203156 22.00318909 11.62062073 C18.81468851 11.55577149 15.62611283 11.49654392 12.4375 11.4375 C10.26236234 11.39425316 8.087232 11.35063701 5.91210938 11.30664062 C0.60814994 11.20015738 -4.69588249 11.09827685 -10 11 C-9.05052441 9.88322508 -8.09975103 8.76755346 -7.1484375 7.65234375 C-6.35445557 6.72023071 -6.35445557 6.72023071 -5.54443359 5.76928711 C-3.78334607 3.7518035 -1.93011408 1.85587892 0 0 Z " fill="#297ACD" transform="translate(291,140)"/>
<path d="M0 0 C8.91 0 17.82 0 27 0 C27.09187855 4.07583457 27.17149189 8.1490296 27.21972656 12.2253418 C27.23983275 13.61153338 27.26712245 14.99764025 27.30175781 16.38354492 C27.35031225 18.37641906 27.37083972 20.36991389 27.390625 22.36328125 C27.41157227 23.56251221 27.43251953 24.76174316 27.45410156 25.99731445 C27 29 27 29 24.97558594 30.91479492 C24.32364258 31.2729126 23.67169922 31.63103027 23 32 C23.16226074 31.4548877 23.32452148 30.90977539 23.49169922 30.34814453 C24.07578248 27.64991552 24.12960801 25.19058282 24.1328125 22.4296875 C24.13410156 21.36878906 24.13539063 20.30789062 24.13671875 19.21484375 C24.13091797 17.56162109 24.13091797 17.56162109 24.125 15.875 C24.12886719 14.76511719 24.13273437 13.65523437 24.13671875 12.51171875 C24.13542969 11.45339844 24.13414062 10.39507812 24.1328125 9.3046875 C24.13168457 8.33515137 24.13055664 7.36561523 24.12939453 6.36669922 C24.15632176 3.98121134 24.15632176 3.98121134 23 2 C20.43721301 1.94579299 17.87558517 1.90622993 15.3125 1.875 C14.59126953 1.85824219 13.87003906 1.84148437 13.12695312 1.82421875 C8.95123219 1.78608431 5.7505862 2.1210081 2 4 C1.67 6.64 1.34 9.28 1 12 C0.67 12 0.34 12 0 12 C0 8.04 0 4.08 0 0 Z " fill="#0B75EF" transform="translate(281,210)"/>
<path d="M0 0 C0.66 0.33 1.32 0.66 2 1 C0.69756058 1.95142738 -0.61772312 2.88527214 -1.9375 3.8125 C-2.66839844 4.33457031 -3.39929688 4.85664063 -4.15234375 5.39453125 C-13.48374271 10.65544342 -22.64133032 10.36458304 -33.0625 10.1875 C-34.61131511 10.17242519 -36.16014441 10.15874173 -37.70898438 10.14648438 C-41.47301178 10.11370138 -45.23634638 10.06207498 -49 10 C-49 9.67 -49 9.34 -49 9 C-48.18845459 8.9498877 -47.37690918 8.89977539 -46.54077148 8.84814453 C-42.83913019 8.61505767 -39.1383619 8.37013865 -35.4375 8.125 C-33.52227539 8.00705078 -33.52227539 8.00705078 -31.56835938 7.88671875 C-20.26084823 7.54857614 -20.26084823 7.54857614 -11 2 C-8.5546875 1.5234375 -8.5546875 1.5234375 -5.875 1.375 C-2.63088186 1.43466212 -2.63088186 1.43466212 0 0 Z " fill="#49BFEE" transform="translate(357,200)"/>
<path d="M0 0 C0.72907562 -0.0004985 1.45815125 -0.00099701 2.20932007 -0.00151062 C3.75432047 0.00082957 5.2993247 0.010555 6.84423828 0.02709961 C9.18167247 0.05048842 11.51794884 0.04768578 13.85546875 0.04101562 C33.03700807 0.07493001 33.03700807 0.07493001 40.1484375 4.98828125 C40.80972656 5.43429688 41.47101563 5.8803125 42.15234375 6.33984375 C42.62542969 6.67757812 43.09851563 7.0153125 43.5859375 7.36328125 C40.57562006 8.2975177 39.71943482 8.40778036 36.5859375 7.36328125 C36.5859375 6.70328125 36.5859375 6.04328125 36.5859375 5.36328125 C35.8846875 5.23953125 35.1834375 5.11578125 34.4609375 4.98828125 C31.5859375 4.36328125 31.5859375 4.36328125 28.86669922 3.35009766 C25.19972968 2.24711426 22.04388628 2.04405684 18.21875 1.94921875 C17.53916229 1.9298526 16.85957458 1.91048645 16.15939331 1.89053345 C14.01003171 1.83123026 11.86061509 1.78455234 9.7109375 1.73828125 C8.2447696 1.70005593 6.77862307 1.66100161 5.3125 1.62109375 C1.73717586 1.52557081 -1.83830998 1.44135999 -5.4140625 1.36328125 C-5.7440625 2.35328125 -6.0740625 3.34328125 -6.4140625 4.36328125 C-7.7340625 4.03328125 -9.0540625 3.70328125 -10.4140625 3.36328125 C-7.72187647 -0.47336916 -4.28121771 -0.05632776 0 0 Z " fill="#2C84D7" transform="translate(314.4140625,123.63671875)"/>
<path d="M0 0 C0.33 0 0.66 0 1 0 C1.37286757 13.40251758 0.10039119 25.3950108 -9 36 C-9.66 36 -10.32 36 -11 36 C-11 36.66 -11 37.32 -11 38 C-11.66 37.67 -12.32 37.34 -13 37 C-12.01 34.03 -12.01 34.03 -11 31 C-10.34 31 -9.68 31 -9 31 C-9 30.01 -9 29.02 -9 28 C-8.01 28 -7.02 28 -6 28 C-4.15813517 23.70231539 -2.79104676 20.32873338 -2.9375 15.625 C-2.958125 14.42875 -2.97875 13.2325 -3 12 C-2.34 11.34 -1.68 10.68 -1 10 C-0.53837573 7.56747339 -0.53837573 7.56747339 -0.375 4.875 C-0.30023438 3.96492187 -0.22546875 3.05484375 -0.1484375 2.1171875 C-0.09945313 1.41851562 -0.05046875 0.71984375 0 0 Z " fill="#8FCEF0" transform="translate(374,160)"/>
<path d="M0 0 C1.02071796 3.38878364 1.1656231 6.53156881 1.1875 10.0625 C1.20167969 11.10535156 1.21585937 12.14820313 1.23046875 13.22265625 C1 16 1 16 -1 19 C-2.10228696 14.59085217 -2.07654536 10.51617599 -2 6 C-6.49014476 4.92236526 -8.33010946 4.62242533 -12.4375 6.9375 C-13.7059375 7.9584375 -13.7059375 7.9584375 -15 9 C-15.66 8.67 -16.32 8.34 -17 8 C-14.53197261 5.15676575 -11.91545546 3.84119176 -8.5 2.3125 C-7.5409375 1.87550781 -6.581875 1.43851563 -5.59375 0.98828125 C-3 0 -3 0 0 0 Z " fill="#1270E8" transform="translate(373,154)"/>
<path d="M0 0 C0.33 0.99 0.66 1.98 1 3 C3.64 2.34 6.28 1.68 9 1 C8.67 1.66 8.34 2.32 8 3 C7.01 3 6.02 3 5 3 C3.62740634 5.4510601 2.82036267 7.64669438 2.0625 10.375 C1.0422341 13.85590719 -0.28927715 16.81183468 -2 20 C-3.98 20 -5.96 20 -8 20 C-7.21625 19.4225 -6.4325 18.845 -5.625 18.25 C-2.21205409 15.32461779 -1.19763741 13.43939699 -0.5859375 8.984375 C-0.51632812 7.91703125 -0.44671875 6.8496875 -0.375 5.75 C-0.30023438 4.67234375 -0.22546875 3.5946875 -0.1484375 2.484375 C-0.09945313 1.66453125 -0.05046875 0.8446875 0 0 Z " fill="#0D80F0" transform="translate(346,161)"/>
<path d="M0 0 C-0.99 0.33 -1.98 0.66 -3 1 C-3 1.66 -3 2.32 -3 3 C-13.89 3 -24.78 3 -36 3 C-36 2.67 -36 2.34 -36 2 C-31.50034522 1.66189644 -27.00022839 1.33037391 -22.5 1 C-20.59734375 0.85691406 -20.59734375 0.85691406 -18.65625 0.7109375 C-12.4204271 0.25624208 -6.25261544 -0.12631546 0 0 Z " fill="#44B0DB" transform="translate(344,207)"/>
<path d="M0 0 C0.81210937 0.41572266 0.81210937 0.41572266 1.640625 0.83984375 C0.939375 1.35546875 0.238125 1.87109375 -0.484375 2.40234375 C-3.85404857 5.25924091 -6.57094104 8.42856372 -9.359375 11.83984375 C-10.679375 11.50984375 -11.999375 11.17984375 -13.359375 10.83984375 C-11.62399377 8.96982087 -9.8734415 7.11996283 -8.109375 5.27734375 C-7.37267578 4.47780273 -7.37267578 4.47780273 -6.62109375 3.66210938 C-2.88743798 -0.19600158 -2.88743798 -0.19600158 0 0 Z " fill="#267DE0" transform="translate(305.359375,128.16015625)"/>
<path d="M0 0 C1.94993721 3.36807336 2.219963 6.15064754 2 10 C1.7525 9.443125 1.505 8.88625 1.25 8.3125 C-1.07890601 4.00402388 -3.42821314 0.88152961 -8 -1 C-10.35564596 -1.44811137 -10.35564596 -1.44811137 -12.75 -1.625 C-13.54921875 -1.69976562 -14.3484375 -1.77453125 -15.171875 -1.8515625 C-15.77515625 -1.90054688 -16.3784375 -1.94953125 -17 -2 C-17 -2.33 -17 -2.66 -17 -3 C-10.68156072 -4.67252804 -5.49396881 -3.49616197 0 0 Z " fill="#3595E0" transform="translate(344,154)"/>
<path d="M0 0 C3.875 1.75 3.875 1.75 5 4 C5.99 4 6.98 4 8 4 C8 4.66 8 5.32 8 6 C4.62902617 7.49821059 2.79557881 8 -1 8 C-1.04241723 5.66705225 -1.04092937 3.33297433 -1 1 C-0.67 0.67 -0.34 0.34 0 0 Z " fill="#27B2F4" transform="translate(353,194)"/>
<path d="M0 0 C2.31 0 4.62 0 7 0 C6.44225728 3.23490776 5.62788492 4.97855006 3 7 C2.01 7 1.02 7 0 7 C0 4.69 0 2.38 0 0 Z " fill="#1AA5EE" transform="translate(281,256)"/>
<path d="M0 0 C0.33 0 0.66 0 1 0 C1.09893453 4.07496103 1.17149694 8.14945656 1.21972656 12.2253418 C1.23983275 13.61153338 1.26712245 14.99764025 1.30175781 16.38354492 C1.35031225 18.37641906 1.37083972 20.36991389 1.390625 22.36328125 C1.41157227 23.56251221 1.43251953 24.76174316 1.45410156 25.99731445 C1 29 1 29 -1.02441406 30.91479492 C-1.67635742 31.2729126 -2.32830078 31.63103027 -3 32 C-2.67 30.68 -2.34 29.36 -2 28 C-1.34 28 -0.68 28 0 28 C0 18.76 0 9.52 0 0 Z " fill="#2977D1" transform="translate(307,210)"/>
<path d="M0 0 C3.08859947 1.35335595 5.007964 2.80886249 7.1875 5.375 C7.95126953 6.25285156 7.95126953 6.25285156 8.73046875 7.1484375 C10.07559273 9.11024909 10.57514402 10.676089 11 13 C6.6841266 11.56137553 4.6472108 8.60293733 2 5 C0.625 2.0625 0.625 2.0625 0 0 Z " fill="#8BCBEE" transform="translate(358,132)"/>
<path d="M0 0 C5.15464734 0.48324819 8.81550319 3.18610761 13 6 C9.98968256 6.93423645 9.13349732 7.04449911 6 6 C6 5.34 6 4.68 6 4 C4.35 3.67 2.7 3.34 1 3 C0.67 2.01 0.34 1.02 0 0 Z " fill="#7AC0E9" transform="translate(345,125)"/>
<path d="M0 0 C0.33 0.99 0.66 1.98 1 3 C-0.9375 5.6875 -0.9375 5.6875 -3 8 C-1.68 8.66 -0.36 9.32 1 10 C-1.31 10 -3.62 10 -6 10 C-5.58578031 5.16743695 -3.53586014 3.17320782 0 0 Z " fill="#2178E1" transform="translate(291,140)"/>
<path d="M0 0 C0.33 0 0.66 0 1 0 C1.55353075 13.6332574 1.55353075 13.6332574 -2 20 C-2.33 20 -2.66 20 -3 20 C-3.1953125 13.9453125 -3.1953125 13.9453125 -3 12 C-2.34 11.34 -1.68 10.68 -1 10 C-0.53837573 7.56747339 -0.53837573 7.56747339 -0.375 4.875 C-0.30023438 3.96492187 -0.22546875 3.05484375 -0.1484375 2.1171875 C-0.09945313 1.41851562 -0.05046875 0.71984375 0 0 Z " fill="#63A3E7" transform="translate(374,160)"/>
<path d="M0 0 C0.66 0.33 1.32 0.66 2 1 C0.68 3.64 -0.64 6.28 -2 9 C-2.99 8.67 -3.98 8.34 -5 8 C-5.33 8.99 -5.66 9.98 -6 11 C-6 9.35 -6 7.7 -6 6 C-5.01 6 -4.02 6 -3 6 C-2.67 5.01 -2.34 4.02 -2 3 C-1.34 3 -0.68 3 0 3 C0 2.01 0 1.02 0 0 Z " fill="#2392E3" transform="translate(370,180)"/>
<path d="M0 0 C2.04119788 1.61594832 4.04072937 3.2856382 6 5 C6 5.66 6 6.32 6 7 C4.35 7 2.7 7 1 7 C0.67 4.69 0.34 2.38 0 0 Z " fill="#0E9DF5" transform="translate(360,137)"/>
<path d="M0 0 C3.31225448 1.65612724 3.76982575 4.64497931 5 8 C5.1875 10.9375 5.1875 10.9375 5 13 C4.7525 12.46375 4.505 11.9275 4.25 11.375 C2.96785323 8.80892413 2.96785323 8.80892413 0.8125 5.9375 C0.214375 4.968125 -0.38375 3.99875 -1 3 C-0.67 2.01 -0.34 1.02 0 0 Z " fill="#94D1EF" transform="translate(369,145)"/>
<path d="M0 0 C2.31 0 4.62 0 7 0 C6.360625 0.309375 5.72125 0.61875 5.0625 0.9375 C3.06389179 1.8345163 3.06389179 1.8345163 2 3 C1.76924918 4.34747084 1.58846937 5.70377565 1.4375 7.0625 C1.293125 8.361875 1.14875 9.66125 1 11 C0.67 11 0.34 11 0 11 C0 7.37 0 3.74 0 0 Z " fill="#0A74F2" transform="translate(281,211)"/>
<path d="M0 0 C0.66 0 1.32 0 2 0 C1.67 1.65 1.34 3.3 1 5 C-0.32 5.33 -1.64 5.66 -3 6 C-3.33 4.35 -3.66 2.7 -4 1 C-2.68 1.33 -1.36 1.66 0 2 C0 1.34 0 0.68 0 0 Z " fill="#0E99F8" transform="translate(350,158)"/>
<path d="M0 0 C-2.31 1.65 -4.62 3.3 -7 5 C-7.66 4.67 -8.32 4.34 -9 4 C-8.67 3.01 -8.34 2.02 -8 1 C-2.59770115 -1.29885057 -2.59770115 -1.29885057 0 0 Z " fill="#8BD7F1" transform="translate(359,201)"/>
</svg>
