<?xml version="1.0" encoding="UTF-8"?>
<svg version="1.1" xmlns="http://www.w3.org/2000/svg" width="200" height="257">
<path d="M0 0 C5.67444217 -0.04611285 11.34822429 -0.08587782 17.02270508 -0.10986328 C18.94981092 -0.11987087 20.87690178 -0.1334811 22.80395508 -0.15087891 C25.58678913 -0.17535921 28.36942101 -0.18653578 31.15234375 -0.1953125 C32.00271713 -0.20563507 32.85309052 -0.21595764 33.72923279 -0.22659302 C46.66743516 -0.22897602 58.60904456 4.26863435 69 12 C69.495 13.485 69.495 13.485 70 15 C71.31163924 15.70839588 72.64851484 16.37094509 74 17 C79.81264192 21.67134693 83.51395348 27.49406434 87 34 C87.3815625 34.66257813 87.763125 35.32515625 88.15625 36.0078125 C93.36213803 46.06464165 95.29504406 59.95510045 93 71 C92.835 72.0003125 92.67 73.000625 92.5 74.03125 C89.76772035 88.37571815 81.77330683 102.71670175 69.765625 111.31640625 C68.5994716 112.07398518 67.4273772 112.82248479 66.25 113.5625 C65.32030396 114.14946655 65.32030396 114.14946655 64.37182617 114.74829102 C49.78227252 123.81572805 36.09779927 124.29064954 19.3125 124.125 C17.53190608 124.11494839 15.75130667 124.1058264 13.97070312 124.09765625 C9.64699741 124.07581948 5.32356074 124.04141037 1 124 C0.67 119.05 0.34 114.1 0 109 C2.27777344 108.93941406 4.55554688 108.87882812 6.90234375 108.81640625 C9.136501 108.75439499 11.37061851 108.69109989 13.60473633 108.62768555 C15.14376199 108.58467981 16.68282491 108.54298471 18.22192383 108.50268555 C41.93639277 107.89735208 41.93639277 107.89735208 62 96 C62.66 96 63.32 96 64 96 C64.27070313 95.42507812 64.54140625 94.85015625 64.8203125 94.2578125 C66.01465189 91.97195764 67.37989305 89.97434706 68.875 87.875 C77.39932711 75.05724652 77.78584264 62.00107818 76 47 C75.34 47 74.68 47 74 47 C73.83886719 46.41734375 73.67773438 45.8346875 73.51171875 45.234375 C70.03506619 34.75498625 62.60359545 26.47567025 52.875 21.375 C44.35569051 17.3928865 35.72285293 16.66996819 26.4375 16.375 C25.42880859 16.33632813 24.42011719 16.29765625 23.38085938 16.2578125 C20.92084001 16.16454162 18.46044635 16.08123107 16 16 C16 20.29 16 24.58 16 29 C17.423125 28.96519531 18.84625 28.93039063 20.3125 28.89453125 C22.20832145 28.86637549 24.10415577 28.83907726 26 28.8125 C26.93457031 28.78736328 27.86914062 28.76222656 28.83203125 28.73632812 C37.65404431 28.64378953 43.79155007 30.71380338 51 36 C51.825 36.53625 52.65 37.0725 53.5 37.625 C59.59746984 43.41759635 62.71919569 50.17772596 63.203125 58.48828125 C63.29178175 65.72119476 63.20412061 71.45825376 60 78 C59.34 78 58.68 78 58 78 C57.938125 78.556875 57.87625 79.11375 57.8125 79.6875 C56.19099111 84.30256377 51.9395288 87.16076081 48.25 90.1875 C47.65703125 90.67605469 47.0640625 91.16460937 46.453125 91.66796875 C37.69241812 96.42497679 27.09017121 95.22880698 17.4375 95.125 C12.013125 95.08375 6.58875 95.0425 1 95 C1 82.79 1 70.58 1 58 C5.95 58 10.9 58 16 58 C16.33 64.6 16.66 71.2 17 78 C23.6 78.33 30.2 78.66 37 79 C37 78.34 37 77.68 37 77 C37.9075 76.443125 38.815 75.88625 39.75 75.3125 C43.53569986 72.61882895 45.41493334 70.33900929 47 66 C47.87093278 60.00024086 46.59716923 56.32083547 43.875 50.98046875 C41.44659099 48.12552152 41.44659099 48.12552152 34 46 C18.49 45.67 2.98 45.34 -13 45 C-13 80.31 -13 115.62 -13 152 C-8.38 152 -3.76 152 1 152 C1 146.39 1 140.78 1 135 C5.95 135 10.9 135 16 135 C16 145.89 16 156.78 16 168 C1.48 168 -13.04 168 -28 168 C-28 122.13 -28 76.26 -28 29 C-18.43 29 -8.86 29 1 29 C0.67 19.43 0.34 9.86 0 0 Z " fill="#FDFDFD" transform="translate(74,41)"/>
<path d="M0 0 C13.53 0 27.06 0 41 0 C41.495 0.99 41.495 0.99 42 2 C38.2143643 3.26187857 34.76317551 3.01657797 30.83203125 2.87890625 C30.03721848 2.85529526 29.2424057 2.83168427 28.42350769 2.80735779 C25.88631901 2.73081899 23.3494431 2.64675272 20.8125 2.5625 C19.09181215 2.50926951 17.37110906 2.45652917 15.65039062 2.40429688 C11.43339589 2.27521711 7.21666615 2.13938609 3 2 C3.00785522 3.26444946 3.00785522 3.26444946 3.01586914 4.55444336 C3.03287826 7.67227936 3.04543406 10.79009177 3.05493164 13.90795898 C3.05997057 15.25920386 3.06680177 16.61044326 3.07543945 17.96166992 C3.08752419 19.90020434 3.09269828 21.838778 3.09765625 23.77734375 C3.10551147 25.52905884 3.10551147 25.52905884 3.11352539 27.31616211 C3 30 3 30 2 31 C-7.24 31 -16.48 31 -26 31 C-26 75.55 -26 120.1 -26 166 C-12.8 166 0.4 166 14 166 C14 156.76 14 147.52 14 138 C10.37 138 6.74 138 3 138 C3 143.28 3 148.56 3 154 C2.67 154 2.34 154 2 154 C1.505 144.595 1.505 144.595 1 135 C5.95 135 10.9 135 16 135 C16 145.89 16 156.78 16 168 C1.48 168 -13.04 168 -28 168 C-28 122.13 -28 76.26 -28 29 C-18.43 29 -8.86 29 1 29 C0.67 19.43 0.34 9.86 0 0 Z " fill="#E7E7E7" transform="translate(74,41)"/>
<path d="M0 0 C4.7941283 4.01670209 6.88632047 7.8272801 8 14 C8.64649059 22.24496901 8.67471955 29.49744759 5 37 C4.34 37 3.68 37 3 37 C2.938125 37.556875 2.87625 38.11375 2.8125 38.6875 C1.19099111 43.30256377 -3.0604712 46.16076081 -6.75 49.1875 C-7.34296875 49.67605469 -7.9359375 50.16460937 -8.546875 50.66796875 C-17.30758188 55.42497679 -27.90982879 54.22880698 -37.5625 54.125 C-42.986875 54.08375 -48.41125 54.0425 -54 54 C-54 41.79 -54 29.58 -54 17 C-49.05 17 -44.1 17 -39 17 C-38.67 23.6 -38.34 30.2 -38 37 C-31.4 37.33 -24.8 37.66 -18 38 C-18 37.34 -18 36.68 -18 36 C-17.0925 35.443125 -16.185 34.88625 -15.25 34.3125 C-11.49810741 31.64288412 -9.52137425 29.33679097 -8 25 C-7.68456557 22.23231727 -7.8129225 19.80616248 -8 17 C-8 16.01 -8 15.02 -8 14 C-7.34 14 -6.68 14 -6 14 C-4.10614658 17.78770683 -4.38847191 21.88394553 -5 26 C-7.64696594 32.01239407 -11.93768333 37.2615029 -18 40 C-22.00414761 40.58321202 -25.90231502 40.47531007 -29.9375 40.3125 C-31.00291016 40.28994141 -32.06832031 40.26738281 -33.16601562 40.24414062 C-35.77795506 40.18557696 -38.38916509 40.09590822 -41 40 C-41.33 33.4 -41.66 26.8 -42 20 C-45.3 19.67 -48.6 19.34 -52 19 C-52 29.89 -52 40.78 -52 52 C-46.92625 51.855625 -41.8525 51.71125 -36.625 51.5625 C-35.02479004 51.51939697 -33.42458008 51.47629395 -31.77587891 51.43188477 C-30.52210449 51.39377686 -29.26833008 51.35566895 -27.9765625 51.31640625 C-26.68830566 51.27974854 -25.40004883 51.24309082 -24.07275391 51.20532227 C-21.0872318 51.20469325 -21.0872318 51.20469325 -19 50 C-17.46331135 49.77532169 -15.92031946 49.59203195 -14.375 49.4375 C-13.55773437 49.35371094 -12.74046875 49.26992187 -11.8984375 49.18359375 C-11.27195313 49.12300781 -10.64546875 49.06242187 -10 49 C-10 48.34 -10 47.68 -10 47 C-8.2421875 46.05598958 -6.484375 45.11197917 -4.7265625 44.16796875 C-2.69497635 42.95236507 -2.69497635 42.95236507 -1 40 C-0.34 40 0.32 40 1 40 C1.28875 38.948125 1.5775 37.89625 1.875 36.8125 C3 33 3 33 4.05859375 30.703125 C5.23282805 27.33146468 5.22942499 24.50112378 5.1875 20.9375 C5.17783203 19.12572266 5.17783203 19.12572266 5.16796875 17.27734375 C4.95015832 12.051609 4.95015832 12.051609 2 8 C0.6507329 5.07658794 0 3.24792684 0 0 Z " fill="#E7E7E7" transform="translate(129,82)"/>
<path d="M0 0 C4.10420063 2.05210031 5.41800529 7.90573461 7 12 C10.35749055 23.50409199 10.23517456 36.9346539 4.5703125 47.72265625 C3.12019088 49.8834096 1.58963599 51.94100073 0 54 C-0.474375 54.86625 -0.94875 55.7325 -1.4375 56.625 C-3.77780104 60.18225759 -6.65115591 63.35897978 -10 66 C-10.99 66 -11.98 66 -13 66 C-13.495 67.485 -13.495 67.485 -14 69 C-16.23135804 70.18808733 -18.35686903 71.1794433 -20.6875 72.125 C-21.30044922 72.38925781 -21.91339844 72.65351563 -22.54492188 72.92578125 C-29.04063008 75.63978871 -35.05229326 76.14813753 -42.0234375 76.09765625 C-42.76961334 76.0962413 -43.51578918 76.09482635 -44.28457642 76.09336853 C-46.64809318 76.08780874 -49.01151227 76.07526389 -51.375 76.0625 C-52.98567571 76.0574798 -54.59635291 76.0529178 -56.20703125 76.04882812 C-60.13805799 76.03785251 -64.06901248 76.02061596 -68 76 C-68 79.63 -68 83.26 -68 87 C-63.2715098 86.9050442 -58.54344905 86.79867722 -53.81542969 86.68261719 C-52.21360941 86.6447991 -50.61171771 86.60987302 -49.00976562 86.578125 C-38.84513641 86.37432291 -29.03989804 85.72639993 -19 84 C-19 84.66 -19 85.32 -19 86 C-26.31533387 88.67634166 -33.29868734 89.14762453 -40.99609375 89.09765625 C-41.82963882 89.0962413 -42.6631839 89.09482635 -43.52198792 89.09336853 C-46.16052986 89.08781168 -48.79898409 89.0752674 -51.4375 89.0625 C-53.23632689 89.05747942 -55.03515513 89.05291749 -56.83398438 89.04882812 C-61.22268958 89.03785643 -65.61132996 89.02062196 -70 89 C-70.495 81.575 -70.495 81.575 -71 74 C-68.72222656 73.93941406 -66.44445312 73.87882812 -64.09765625 73.81640625 C-61.863499 73.75439499 -59.62938149 73.69109989 -57.39526367 73.62768555 C-55.85623801 73.58467981 -54.31717509 73.54298471 -52.77807617 73.50268555 C-29.06360723 72.89735208 -29.06360723 72.89735208 -9 61 C-8.34 61 -7.68 61 -7 61 C-6.72929687 60.42507812 -6.45859375 59.85015625 -6.1796875 59.2578125 C-4.98534811 56.97195764 -3.62010695 54.97434706 -2.125 52.875 C6.39932711 40.05724652 6.78584264 27.00107818 5 12 C4.34 12 3.68 12 3 12 C1.68 8.37 0.36 4.74 -1 1 C-0.67 0.67 -0.34 0.34 0 0 Z " fill="#E7E7E7" transform="translate(145,76)"/>
<path d="M0 0 C0.85967377 0.00712509 1.71934753 0.01425018 2.60507202 0.02159119 C4.06766953 0.02764122 4.06766953 0.02764122 5.55981445 0.03381348 C7.14721939 0.05858009 7.14721939 0.05858009 8.76669312 0.08384705 C9.85469208 0.09701462 10.94269104 0.11018219 12.06365967 0.12374878 C14.37214514 0.15623545 16.68055588 0.19445272 18.98886108 0.23789978 C22.5048362 0.29808662 26.01983084 0.3216383 29.53622437 0.34361267 C31.77975158 0.37975916 34.02324471 0.41810121 36.26669312 0.45884705 C37.31281769 0.46118851 38.35894226 0.46352997 39.43676758 0.46594238 C46.07153925 0.64014892 50.85552677 1.75775019 55.91513062 6.2361908 C57.91513062 9.2361908 57.91513062 9.2361908 57.91513062 12.2361908 C56.92513062 11.9061908 55.93513062 11.5761908 54.91513062 11.2361908 C54.68825562 10.6174408 54.46138062 9.9986908 54.22763062 9.3611908 C52.55659966 6.17081813 52.55659966 6.17081813 44.91513062 4.2361908 C29.40513062 3.9061908 13.89513062 3.5761908 -2.08486938 3.2361908 C-2.08486938 38.5461908 -2.08486938 73.8561908 -2.08486938 110.2361908 C-3.07486938 110.7311908 -3.07486938 110.7311908 -4.08486938 111.2361908 C-4.13154988 97.0589134 -4.16670593 82.88164788 -4.18849373 68.70430946 C-4.19894866 62.12181058 -4.21313897 55.53936317 -4.23574829 48.95689392 C-4.2574158 42.60918545 -4.26942512 36.26152662 -4.27462387 29.91378403 C-4.27833061 27.48718356 -4.2855685 25.06058594 -4.2963295 22.6340065 C-4.31076342 19.24564405 -4.31285073 15.857489 -4.31192017 12.46910095 C-4.31911072 11.457061 -4.32630127 10.44502106 -4.33370972 9.40231323 C-4.33096039 8.48242111 -4.32821106 7.56252899 -4.32537842 6.61476135 C-4.327222 5.81280146 -4.32906559 5.01084156 -4.33096504 4.18457985 C-3.96370083 1.27687484 -2.88340083 0.32665487 0 0 Z " fill="#E9E9E9" transform="translate(63.084869384765625,82.76380920410156)"/>
<path d="M0 0 C13.53 0 27.06 0 41 0 C41.495 0.99 41.495 0.99 42 2 C38.2143643 3.26187857 34.76317551 3.01657797 30.83203125 2.87890625 C30.03721848 2.85529526 29.2424057 2.83168427 28.42350769 2.80735779 C25.88631901 2.73081899 23.3494431 2.64675272 20.8125 2.5625 C19.09181215 2.50926951 17.37110906 2.45652917 15.65039062 2.40429688 C11.43339589 2.27521711 7.21666615 2.13938609 3 2 C3.00785522 3.26444946 3.00785522 3.26444946 3.01586914 4.55444336 C3.03287826 7.67227936 3.04543406 10.79009177 3.05493164 13.90795898 C3.05997057 15.25920386 3.06680177 16.61044326 3.07543945 17.96166992 C3.08752419 19.90020434 3.09269828 21.838778 3.09765625 23.77734375 C3.10551147 25.52905884 3.10551147 25.52905884 3.11352539 27.31616211 C3 30 3 30 2 31 C-7.57 31 -17.14 31 -27 31 C-27 76.21 -27 121.42 -27 168 C-27.33 168 -27.66 168 -28 168 C-28 122.13 -28 76.26 -28 29 C-18.43 29 -8.86 29 1 29 C0.67 19.43 0.34 9.86 0 0 Z " fill="#EDEDED" transform="translate(74,41)"/>
<path d="M0 0 C9.47016538 0.80597152 18.41985673 5.36001245 26 11 C26.33 11.99 26.66 12.98 27 14 C28.31163924 14.70839588 29.64851484 15.37094509 31 16 C36.81264192 20.67134693 40.51395348 26.49406434 44 33 C44.3815625 33.66257813 44.763125 34.32515625 45.15625 35.0078125 C50.36213803 45.06464165 52.29504406 58.95510045 50 70 C49.835 71.0003125 49.67 72.000625 49.5 73.03125 C47.34054944 84.36836542 41.75072005 97.34399131 32.6875 104.9375 C32.130625 105.288125 31.57375 105.63875 31 106 C30.34 105.67 29.68 105.34 29 105 C29.93590504 103.8944811 30.87379858 102.79064547 31.8125 101.6875 C32.33457031 101.07261719 32.85664063 100.45773438 33.39453125 99.82421875 C35 98 35 98 36.51171875 96.63671875 C45.66189688 86.57392443 47.91797532 69.0419235 48 56 C47.67 55.67 47.34 55.34 47 55 C46.9175 53.7625 46.835 52.525 46.75 51.25 C46.12225123 44.74233778 43.45842123 38.9965545 41 33 C40.67 32.01 40.34 31.02 40 30 C39.34 29.67 38.68 29.34 38 29 C37.25616399 27.79198725 36.55366165 26.55829499 35.875 25.3125 C33.45753339 21.29777867 30.71708114 18.93825159 26.8671875 16.32421875 C25.02804517 15.01988977 23.58190115 13.59872989 22 12 C16.42012712 7.61581417 10.47383274 5.76014489 3.66015625 3.9921875 C2.78230469 3.66476563 1.90445313 3.33734375 1 3 C0.67 2.01 0.34 1.02 0 0 Z " fill="#EBEBEB" transform="translate(117,42)"/>
<path d="M0 0 C4.10420063 2.05210031 5.41800529 7.90573461 7 12 C10.35749055 23.50409199 10.23517456 36.9346539 4.5703125 47.72265625 C3.12019088 49.8834096 1.58963599 51.94100073 0 54 C-0.474375 54.86625 -0.94875 55.7325 -1.4375 56.625 C-3.77780104 60.18225759 -6.65115591 63.35897978 -10 66 C-10.99 66 -11.98 66 -13 66 C-13.33 66.99 -13.66 67.98 -14 69 C-16.21177632 70.21855237 -18.30639582 71.22339867 -20.625 72.1875 C-21.22957031 72.46013672 -21.83414063 72.73277344 -22.45703125 73.01367188 C-26.78067264 74.85283276 -30.33355937 75.26990981 -35 75 C-35.33 74.34 -35.66 73.68 -36 73 C-34.7625 72.773125 -33.525 72.54625 -32.25 72.3125 C-23.44971367 70.33834414 -15.64922615 67.12428724 -9 61 C-8.34 61 -7.68 61 -7 61 C-6.72929687 60.42507812 -6.45859375 59.85015625 -6.1796875 59.2578125 C-4.98534811 56.97195764 -3.62010695 54.97434706 -2.125 52.875 C6.39932711 40.05724652 6.78584264 27.00107818 5 12 C4.34 12 3.68 12 3 12 C1.68 8.37 0.36 4.74 -1 1 C-0.67 0.67 -0.34 0.34 0 0 Z " fill="#E5E5E5" transform="translate(145,76)"/>
<path d="M0 0 C30.40368464 -0.71915557 30.40368464 -0.71915557 41 6 C37.57176137 7.14274621 36.88717985 6.83857544 33.625 5.625 C28.64627931 3.79433638 24.00362583 2.90073322 18.69921875 2.68359375 C17.72275391 2.64169922 16.74628906 2.59980469 15.74023438 2.55664062 C14.22913086 2.49766602 14.22913086 2.49766602 12.6875 2.4375 C11.14739258 2.37272461 11.14739258 2.37272461 9.57617188 2.30664062 C7.05092511 2.20093262 4.52547933 2.09999792 2 2 C2 6.29 2 10.58 2 15 C8.27 15 14.54 15 21 15 C21 15.66 21 16.32 21 17 C17.68751813 17.02888146 14.37506833 17.04675799 11.0625 17.0625 C10.11697266 17.07087891 9.17144531 17.07925781 8.19726562 17.08789062 C6.84858398 17.09272461 6.84858398 17.09272461 5.47265625 17.09765625 C4.22367554 17.10551147 4.22367554 17.10551147 2.94946289 17.11352539 C1 17 1 17 0 16 C-0.07319621 13.30345146 -0.09242537 10.63308542 -0.0625 7.9375 C-0.05798828 7.17888672 -0.05347656 6.42027344 -0.04882812 5.63867188 C-0.0370068 3.75908129 -0.01907078 1.87953101 0 0 Z " fill="#EFEFEF" transform="translate(88,55)"/>
<path d="M0 0 C6.97478793 0.01633021 13.94852049 0.07130086 20.92285156 0.15258789 C23.29322465 0.17572216 25.66369987 0.19015281 28.03417969 0.19555664 C31.4505138 0.20487913 34.86525165 0.24594538 38.28125 0.29296875 C39.85984802 0.28706978 39.85984802 0.28706978 41.47033691 0.28105164 C48.13720093 0.41195277 52.92140086 1.48931164 58 6 C60 9 60 9 60 12 C59.01 11.67 58.02 11.34 57 11 C56.773125 10.38125 56.54625 9.7625 56.3125 9.125 C54.199602 5.70411752 50.72516968 4.9647979 47 4 C43.3106601 3.56522048 39.64984975 3.51232075 35.9375 3.48828125 C34.90560547 3.47033005 33.87371094 3.45237885 32.81054688 3.43388367 C29.54040516 3.38004544 26.27040719 3.34596978 23 3.3125 C20.77211553 3.27930358 18.54424996 3.24481179 16.31640625 3.20898438 C10.87773315 3.12433446 5.43904082 3.05587333 0 3 C-0.33 3.66 -0.66 4.32 -1 5 C-0.67 3.35 -0.34 1.7 0 0 Z " fill="#F1F1F1" transform="translate(61,83)"/>
<path d="M0 0 C4.10420063 2.05210031 5.41800529 7.90573461 7 12 C10.24006308 23.10173897 10.26705572 36.46588855 5 47 C4.34 47 3.68 47 3 47 C3.47149442 44.57394688 3.95696009 42.16803253 4.5703125 39.7734375 C6.70838148 30.52854768 5.71843961 21.36884081 5 12 C4.34 12 3.68 12 3 12 C1.68 8.37 0.36 4.74 -1 1 C-0.67 0.67 -0.34 0.34 0 0 Z " fill="#EAEAEA" transform="translate(145,76)"/>
<path d="M0 0 C0 0.33 0 0.66 0 1 C-11.22 1 -22.44 1 -34 1 C-34 5.29 -34 9.58 -34 14 C-34.66 14 -35.32 14 -36 14 C-36.33 9.05 -36.66 4.1 -37 -1 C-32.37355504 -1.1889387 -27.7478047 -1.37133594 -23.12060547 -1.53710938 C-21.54721619 -1.59544307 -19.97396318 -1.65758355 -18.40087891 -1.72363281 C-16.13729671 -1.81800832 -13.87357465 -1.89860024 -11.609375 -1.9765625 C-10.90818542 -2.00875885 -10.20699585 -2.0409552 -9.48455811 -2.0741272 C-5.78425323 -2.18715539 -3.13851114 -2.061847 0 0 Z " fill="#F3F3F3" transform="translate(111,151)"/>
<path d="M0 0 C0.99 0.66 1.98 1.32 3 2 C2.67 2.66 2.34 3.32 2 4 C1.34 4 0.68 4 0 4 C-0.0928125 4.8353125 -0.0928125 4.8353125 -0.1875 5.6875 C-1.3727363 9.06086485 -3.33716028 10.6204411 -6 13 C-6.87011719 13.80050781 -6.87011719 13.80050781 -7.7578125 14.6171875 C-12.93956836 19.00175015 -17.27250018 19.97242828 -24 20 C-23.505 18.515 -23.505 18.515 -23 17 C-19.7 16.67 -16.4 16.34 -13 16 C-13 15.34 -13 14.68 -13 14 C-11.2421875 13.05598958 -9.484375 12.11197917 -7.7265625 11.16796875 C-5.69497635 9.95236507 -5.69497635 9.95236507 -4 7 C-3.34 7 -2.68 7 -2 7 C-1.34 4.69 -0.68 2.38 0 0 Z " fill="#F1F1F1" transform="translate(132,115)"/>
<path d="M0 0 C2 2 2 2 2.1953125 4.6015625 C2.13020833 7.40104167 2.06510417 10.20052083 2 13 C8.27 13 14.54 13 21 13 C21 13.66 21 14.32 21 15 C17.68751813 15.02888146 14.37506833 15.04675799 11.0625 15.0625 C10.11697266 15.07087891 9.17144531 15.07925781 8.19726562 15.08789062 C6.84858398 15.09272461 6.84858398 15.09272461 5.47265625 15.09765625 C4.64000244 15.10289307 3.80734863 15.10812988 2.94946289 15.11352539 C1 15 1 15 0 14 C-0.07271741 11.64686445 -0.08370868 9.29166332 -0.0625 6.9375 C-0.05347656 5.64714844 -0.04445313 4.35679688 -0.03515625 3.02734375 C-0.02355469 2.02832031 -0.01195313 1.02929688 0 0 Z " fill="#D9D9D9" transform="translate(88,57)"/>
<path d="M0 0 C8.63904196 0.73523761 15.64900895 4.62068618 23 9 C23 9.66 23 10.32 23 11 C20.26016281 10.61946706 18.42507977 10.34366138 16.24609375 8.58203125 C12.51653176 5.95512237 8.16535353 5.22768059 3.80078125 4.0625 C2.87652344 3.711875 1.95226562 3.36125 1 3 C0.67 2.01 0.34 1.02 0 0 Z " fill="#E5E5E5" transform="translate(117,42)"/>
<path d="M0 0 C0 0.66 0 1.32 0 2 C-7.30082023 4.67103179 -14.25439685 5.14808727 -21.9375 5.0625 C-22.71673828 5.05798828 -23.49597656 5.05347656 -24.29882812 5.04882812 C-26.19925268 5.03716908 -28.09963706 5.01923877 -30 5 C-30 4.67 -30 4.34 -30 4 C-28.97261719 3.87882813 -27.94523437 3.75765625 -26.88671875 3.6328125 C-19.58723619 2.75535626 -12.35237649 1.80368904 -5.13671875 0.3671875 C-3 0 -3 0 0 0 Z " fill="#EBEBEB" transform="translate(126,160)"/>
<path d="M0 0 C2.14453125 0.390625 2.14453125 0.390625 4 1 C2.41906946 2.12837409 0.83515284 3.25256518 -0.75 4.375 C-1.63171875 5.00148437 -2.5134375 5.62796875 -3.421875 6.2734375 C-8.98642534 10 -8.98642534 10 -13 10 C-12.67 9.01 -12.34 8.02 -12 7 C-10.29375761 6.24531587 -8.58246297 5.49843165 -6.83984375 4.83203125 C-4.72577167 3.97532758 -4.72577167 3.97532758 -2.3125 1.75 C-1.1678125 0.88375 -1.1678125 0.88375 0 0 Z " fill="#F0F0F0" transform="translate(141,150)"/>
<path d="M0 0 C5.00417959 1.56380612 9.232044 4.39292302 13 8 C14.5 11.375 14.5 11.375 15 14 C11.58259864 12.86086621 10.84380651 11.86587863 8.625 9.125 C5.98553602 5.9867838 3.62517635 3.97736892 0 2 C0 1.34 0 0.68 0 0 Z " fill="#E9E9E9" transform="translate(129,62)"/>
<path d="M0 0 C5.71678359 -0.35288788 9.38495214 1.81423935 14 5 C16.5625 7.8125 16.5625 7.8125 18 10 C16.68 9.67 15.36 9.34 14 9 C14 8.34 14 7.68 14 7 C13.40832031 6.81824219 12.81664063 6.63648437 12.20703125 6.44921875 C7.81055485 5.0506659 3.80278797 3.69875275 0 1 C0 0.67 0 0.34 0 0 Z " fill="#EFEFEF" transform="translate(110,71)"/>
<path d="M0 0 C0.66 0.99 1.32 1.98 2 3 C1.04532436 4.62715156 0.08613152 6.25165346 -0.875 7.875 C-1.67550781 9.23238281 -1.67550781 9.23238281 -2.4921875 10.6171875 C-4 13 -4 13 -6 15 C-6.99 14.67 -7.98 14.34 -9 14 C-8.51789063 13.40832031 -8.03578125 12.81664062 -7.5390625 12.20703125 C-6.59160156 11.02173828 -6.59160156 11.02173828 -5.625 9.8125 C-4.99851563 9.03519531 -4.37203125 8.25789062 -3.7265625 7.45703125 C-2.02192866 5.03120618 -0.98012094 2.78690955 0 0 Z " fill="#DCDCDC" transform="translate(147,121)"/>
<path d="M0 0 C2 2 2 2 2.1953125 4.6015625 C2.17210938 5.59929688 2.14890625 6.59703125 2.125 7.625 C2.10695313 8.62789062 2.08890625 9.63078125 2.0703125 10.6640625 C2.03550781 11.82035156 2.03550781 11.82035156 2 13 C2.99 13.33 3.98 13.66 5 14 C3.0625 14.5625 3.0625 14.5625 1 15 C0 14 0 14 -0.09765625 10.83984375 C-0.08025391 8.90818359 -0.08025391 8.90818359 -0.0625 6.9375 C-0.05347656 5.64714844 -0.04445313 4.35679688 -0.03515625 3.02734375 C-0.02355469 2.02832031 -0.01195313 1.02929688 0 0 Z " fill="#DFDFDF" transform="translate(88,57)"/>
<path d="M0 0 C3.77356642 3.3763489 6.013719 5.95900824 7 11 C6.01 12.485 6.01 12.485 5 14 C4.87625 13.38125 4.7525 12.7625 4.625 12.125 C4.12802644 9.80879168 4.12802644 9.80879168 2 8 C0.6507329 5.07658794 0 3.24792684 0 0 Z " fill="#EBEBEB" transform="translate(129,82)"/>
<path d="M0 0 C0 0.66 0 1.32 0 2 C-4.1205746 3.99785435 -7.45194365 4.17835515 -12 4 C-12.33 3.34 -12.66 2.68 -13 2 C-11.58461283 1.66127487 -10.16762037 1.32925376 -8.75 1 C-7.56664063 0.7215625 -7.56664063 0.7215625 -6.359375 0.4375 C-4 0 -4 0 0 0 Z " fill="#EBEBEB" transform="translate(122,147)"/>
<path d="M0 0 C3.9126984 1.3042328 6.37310241 2.78934739 9 6 C9 6.99 9 7.98 9 9 C8.01 8.67 7.02 8.34 6 8 C5.690625 7.360625 5.38125 6.72125 5.0625 6.0625 C3.7657662 3.54531085 2.5778263 3.03113052 0 2 C0 1.34 0 0.68 0 0 Z " fill="#ECECEC" transform="translate(112,86)"/>
<path d="M0 0 C4.3890815 0.51035831 7.33708062 1.52214277 11 4 C8 5 8 5 5.95703125 4.22265625 C5.24933594 3.83980469 4.54164062 3.45695312 3.8125 3.0625 C3.09707031 2.68222656 2.38164063 2.30195312 1.64453125 1.91015625 C1.10183594 1.60980469 0.55914062 1.30945312 0 1 C0 0.67 0 0.34 0 0 Z " fill="#E7E7E7" transform="translate(118,57)"/>
<path d="M0 0 C0 0.66 0 1.32 0 2 C-2.64 2.66 -5.28 3.32 -8 4 C-8 3.01 -8 2.02 -8 1 C-5.23735711 0.40267181 -2.83967231 0 0 0 Z " fill="#F2F2F2" transform="translate(126,160)"/>
</svg>
